<?xml version="1.0" encoding="utf-8"?>
<!-- Generator: Adobe Illustrator 24.1.1, SVG Export Plug-In . SVG Version: 6.00 Build 0)  -->
<svg version="1.1" id="Capa_1" xmlns="http://www.w3.org/2000/svg" xmlns:xlink="http://www.w3.org/1999/xlink" x="0px" y="0px"
	 viewBox="0 0 1200 1200" enable-background="new 0 0 1200 1200" xml:space="preserve">
<g>
	<g>
		<circle fill="#F2CF74" cx="600" cy="600" r="530.89"/>
	</g>
	<g>
		<circle fill="#211F26" cx="600" cy="600" r="82.322"/>
	</g>
	<g>
		<path fill="#211F26" d="M655.441,470.638c0,0,82.322,36.961,82.322,126.002h319.206c0-258.725-230.164-413.288-277.205-413.288
			L655.441,470.638z"/>
	</g>
	<g>
		<path fill="#211F26" d="M547.919,470.638c0,0-82.322,36.961-82.322,126.002H146.391c0-258.725,230.164-413.288,277.205-413.288
			L547.919,470.638z"/>
	</g>
	<g>
		<path fill="#211F26" d="M686.972,704.586c0,0-72.37,53.903-150.141,10.542L381.389,993.929
			c225.976,125.991,473.057,0.227,495.964-40.859L686.972,704.586z"/>
	</g>
	<g>
		<path fill="#211F26" d="M600,1150c-303.271,0-550-246.727-550-549.998S296.729,50,600,50s550,246.73,550,550.002
			S903.271,1150,600,1150z M600,88.221c-282.197,0-511.779,229.583-511.779,511.781c0,282.195,229.583,511.778,511.779,511.778
			s511.779-229.583,511.779-511.778C1111.779,317.803,882.197,88.221,600,88.221z"/>
	</g>
</g>
</svg>
